<svg width="103" height="104" viewBox="0 0 103 104" fill="none" xmlns="http://www.w3.org/2000/svg">
<g clip-path="url(#clip0_774_2537)">
<path d="M49.6215 18.2076C49.8482 19.8149 51.8632 20.4328 52.9456 19.2186L57.3392 14.764L57.5702 14.6905C64.9029 15.9738 71.6966 19.331 77.1084 24.464C84.116 31.1136 88.4026 40.3427 88.9117 50.0903H85.1085C84.6678 50.0903 83.9234 50.5267 83.671 50.9026C83.0935 51.7624 83.2817 52.6438 83.9063 53.4043C85.0443 54.7912 86.8283 56.1047 87.9962 57.4744C88.1716 57.6818 88.4625 57.9324 88.424 58.2003C87.4572 63.4024 85.562 68.8941 82.4347 73.1759C82.3705 73.2623 82.3534 73.4352 82.3405 73.4438C82.1395 73.5994 81.6432 72.4976 81.5448 72.3507C79.6239 69.4515 76.5137 67.425 73.0185 67.1399C72.5693 67.1053 71.3672 67.2392 71.0591 67.0967C70.9051 67.0275 70.4474 66.4572 70.2591 66.2887C69.8741 65.9517 69.365 65.6319 69.0698 65.2517C69.9982 64.1024 70.965 63.0049 71.7779 61.7606C79.5726 49.8353 75.7137 33.8184 63.4954 26.8102C51.2771 19.8019 36.2652 24.5634 29.9635 36.7478C25.125 46.1066 26.7293 57.5651 33.908 65.1783C34.032 65.4721 33.5914 65.5714 33.3475 65.7702C33.0609 66.0078 32.7229 66.3146 32.4406 66.5739C32.3122 66.6948 32.0513 67.0707 31.9999 67.101C31.7946 67.2263 30.2801 67.1096 29.8822 67.1442C27.0929 67.3905 24.218 68.933 22.3955 71.0588C21.7624 71.7976 21.326 72.6834 20.757 73.4438C17.6682 69.0237 15.4607 63.7049 14.5751 58.3515C14.3741 57.1244 14.1174 55.4696 14.0703 54.2468C14.0703 54.1474 14.0831 53.8882 14.1944 53.8882H18.1944C18.5452 53.8882 19.2383 53.253 19.4137 52.9376C19.9827 51.9309 19.5891 51.2223 18.9217 50.4446C17.6853 48.9971 15.9997 47.6923 14.7291 46.2405L14.5709 45.9856C14.8318 44.2789 15.2254 42.5549 15.7302 40.8914C18.6778 31.1827 25.6212 22.8869 34.5711 18.294C39.2043 15.9176 44.2311 14.6127 49.4161 14.2066C49.4846 14.1893 49.6087 14.2887 49.6087 14.3233V18.2033L49.6215 18.2076Z" fill="black"/>
<path d="M53.3821 85.6154C53.3607 85.503 53.0013 84.8593 52.9029 84.7512C52.2356 83.9994 51.1104 83.9649 50.3403 84.5654C48.8558 85.7191 47.4655 87.7369 45.9809 88.9726C45.874 89.0633 45.6815 89.2448 45.5574 89.275C45.3906 89.3182 44.4793 89.1541 44.2397 89.1109C37.275 87.8535 29.3733 83.5025 24.569 78.2615C24.4107 78.0887 23.7518 77.4103 23.6877 77.2937C23.4994 76.9653 23.8117 76.0622 23.9486 75.6907C25.1807 72.3983 28.3423 70.7305 31.7348 70.9465C32.4535 70.994 32.6289 71.2878 33.4546 70.9033C34.2803 70.5187 35.1231 69.0367 36.0985 68.4016C37.2108 67.6757 37.2707 68.1812 38.152 68.7472C46.0109 73.7982 55.6752 74.2735 63.7736 69.4386C64.3683 69.0843 65.1255 68.4059 65.6774 68.1294C65.8956 68.017 66.0368 68.0041 66.2721 68.0732C67.8892 68.5658 68.7919 71.1107 70.3919 71.115C70.7213 71.115 70.978 70.9681 71.2732 70.9465C74.131 70.765 76.7791 71.8409 78.3535 74.3037C78.6872 74.8265 79.6027 76.6974 79.3546 77.2504C79.3289 77.3066 78.6743 78.0109 78.5588 78.1405C72.685 84.6389 63.6539 88.7998 55.0292 89.6164C54.8067 89.638 53.3864 89.9404 53.3864 89.6553V85.6154H53.3821Z" fill="black"/>
<path d="M65.3391 32.8464C76.8815 43.3285 73.0012 62.6595 58.4257 67.8314C42.6865 73.4138 27.2553 58.8831 31.6532 42.6545C35.6832 27.7825 53.955 22.5069 65.3391 32.8464ZM47.9871 43.3371C45.2149 40.7404 41.3774 39.0207 37.5784 38.7788C36.1153 38.6837 34.8918 38.917 34.6565 40.5935C34.6992 46.6511 33.9463 52.1212 37.3474 57.44C44.5817 68.7646 61.446 67.4598 66.8878 55.2019C68.9969 50.4534 68.2183 45.5753 68.3552 40.5114C68.0001 38.1825 65.2835 38.7356 63.6022 39.0294C58.5583 39.9194 54.0021 43.2421 51.6577 47.835L51.3454 47.7486C50.4769 46.1111 49.3347 44.5945 47.9914 43.3371H47.9871Z" fill="black"/>
<path d="M102.88 53.8926C102.94 53.9099 103.059 54.0655 102.961 54.1346L96.7235 60.4429C96.6294 60.5206 96.5139 60.5293 96.3941 60.5293C95.9406 60.5293 90.794 54.692 89.8785 54.1303C89.6518 53.7976 91.0293 53.897 91.1791 53.871C92.9545 53.5686 92.7491 51.4169 92.6807 50.0472C92.5694 47.7745 92.1844 45.1864 91.6924 42.9612C88.2956 27.5535 76.1158 14.9931 60.8301 11.5365L60.9028 11.1736C61.8312 10.1107 63.106 9.14283 63.9873 8.06697C65.2879 6.48126 64.3424 5.61279 63.2258 4.39002C63.213 4.32521 63.2943 4.35114 63.3456 4.34682C63.7349 4.32953 65.4547 4.88259 65.9424 5.03813C85.8271 11.2427 99.1021 29.2342 100.197 50.1336C100.257 51.244 99.8807 52.6612 100.83 53.4519C100.95 53.5513 101.566 53.8926 101.673 53.8926C101.951 53.8926 102.674 53.8365 102.875 53.8926H102.88Z" fill="black"/>
<path d="M13.1292 50.0947C11.8886 49.9521 10.4896 50.4144 10.3271 51.8316C10.1003 53.8494 10.6736 57.8244 11.0672 59.8941C14.1132 75.8505 26.5668 88.9337 42.2589 92.5242C42.2076 92.6668 42.1563 92.8051 42.0622 92.9304C41.3092 93.963 38.7338 95.8037 38.4728 96.9011C38.306 97.5968 38.4856 98.1325 38.9006 98.6813C38.9947 98.8066 39.9188 99.58 39.7776 99.7139C23.893 95.8296 10.7164 83.589 5.45 67.9868C3.75587 62.9661 3.14838 58.4769 2.88741 53.1969C2.86602 52.7649 2.85319 51.8057 2.76762 51.46C2.44676 50.194 1.21039 50.1595 0.20503 50.0903C0.0852428 50.0817 -0.0259883 50.1508 0.00823661 49.9693L6.6051 43.458L13.1292 50.0903V50.0947Z" fill="black"/>
<path d="M53.3816 11.9038C53.3474 11.744 52.9495 11.0699 52.8126 10.9403C51.9399 10.1323 50.0703 10.4132 48.9409 10.4866C37.0606 11.2946 25.9674 17.3048 18.7802 26.819C15.2379 31.507 12.7694 36.882 11.3705 42.6199C11.2507 42.715 10.7972 42.2743 10.686 42.1706C9.8389 41.3928 8.06775 39.1244 7.09234 38.8479C6.34795 38.6362 5.82602 38.8782 5.24847 39.3405C5.0474 39.5004 4.58964 40.0836 4.44419 40.1441C4.32868 40.196 4.31584 40.1182 4.3244 40.0232C4.34579 39.6429 4.63242 38.688 4.74793 38.2689C10.3095 18.3676 28.4573 4.04875 48.8596 2.89079C50.0703 2.82166 52.1195 3.22349 52.9452 2.16923C53.0436 2.04393 53.3816 1.43038 53.3816 1.31804V0.103918C53.3816 0.103918 53.4971 -0.0559487 53.5399 0.0218244C54.1859 0.864367 59.9485 6.18751 59.9485 6.64983C59.9485 7.11214 54.1859 12.4353 53.5399 13.2778C53.4971 13.3599 53.3816 13.2044 53.3816 13.1957C53.3816 12.8501 53.4415 12.1933 53.3816 11.9038Z" fill="black"/>
<path d="M49.6216 91.9194C49.7157 92.5978 50.4173 93.4619 51.1061 93.5699C52.1799 93.7385 53.6901 93.5051 54.781 93.4144C72.3427 91.9626 86.4605 79.8689 91.2777 62.8668C91.3375 62.6594 91.5472 61.5015 91.6285 61.441C91.714 61.3762 91.8638 61.3848 91.9536 61.4496L95.1408 64.7204C96.0905 65.4593 96.9248 65.3772 97.836 64.6383C98.0756 64.4439 98.3323 64.0637 98.559 63.9124C98.666 63.8433 98.743 63.8347 98.7601 63.9557C97.3569 69.2961 95.1964 74.4421 92.1803 79.0523C83.53 92.2781 69.301 100.349 53.5874 101.174C52.304 101.244 50.627 100.764 49.8997 102.138C49.8312 102.263 49.6216 102.726 49.6216 102.829V104L43.0547 97.4111L49.6216 90.7485C49.6558 91.1158 49.5703 91.5651 49.6216 91.9194Z" fill="black"/>
<path d="M64.586 42.7367C64.4662 44.9576 64.7529 47.3556 64.5775 49.5549C64.1368 55.0249 59.555 60.24 54.1902 61.2079C53.8437 61.2684 53.4201 61.4282 53.3816 61.0437C53.1463 58.5938 53.4116 55.5088 53.6469 53.059C54.7934 47.7401 59.2042 43.4194 64.5903 42.7324L64.586 42.7367Z" fill="black"/>
<path d="M46.6949 47.4722C50.049 51.6676 49.7153 55.8976 49.6255 61.0479C49.6255 61.1429 49.6083 61.2855 49.5057 61.3071C49.3474 61.3374 48.1709 61.0565 47.9228 60.9831C43.9997 59.8727 40.5644 56.6235 39.1826 52.7607C38.0489 49.5936 38.5109 46.3272 38.4168 43.0175C38.3654 42.594 39.0457 42.7842 39.3195 42.8403C42.1644 43.3934 44.8981 45.2254 46.6949 47.4722Z" fill="black"/>
</g>
<defs>
<clipPath id="clip0_774_2537">
<rect width="103" height="104" fill="white"/>
</clipPath>
</defs>
</svg>
