<svg width="112" height="90" viewBox="0 0 112 90" fill="none" xmlns="http://www.w3.org/2000/svg">
<g clip-path="url(#clip0_774_2514)">
<path d="M16.9194 28.214V8.31184C16.9194 4.89734 20.1157 1.40013 23.3297 0.578994C26.5437 -0.242142 41.0567 -0.147622 44.3651 0.578994C47.6734 1.30561 49.4013 2.93016 51.3002 5.4231C55.558 11.0115 61.6616 19.7428 65.1351 25.7624C66.1435 27.5051 67.0812 29.8681 67.2581 31.8885C67.6355 36.2364 67.6473 44.6722 67.2581 49.0142C66.8394 53.6811 62.5403 56.1563 58.2648 56.5166C42.7138 57.8222 25.4232 55.5419 9.6953 56.5344C5.36674 56.1622 1.75175 54.514 0.578201 50.0421C-0.170746 47.177 -0.206129 37.2406 0.584098 34.411C1.37433 31.5813 4.85369 28.2199 7.94383 28.2199H16.9194V28.214ZM53.1224 28.214L41.788 11.4073H28.3954V28.214H53.1165H53.1224Z" fill="black"/>
<path d="M100.801 22.909L72.8428 50.6209V28.3616L99.2328 2.02619C103.992 -1.63643 111.275 0.992388 112 7.12432V77.0213C110.196 92.93 94.462 89.7223 82.7678 89.7695C77.8377 87.6192 77.1124 82.9464 80.7745 79.0593C81.2699 78.5336 81.9245 78.25 82.414 77.7538C88.5589 71.5214 94.6094 65.2064 100.801 59.0213V22.9031V22.909Z" fill="black"/>
<path d="M13.328 61.9163C27.906 60.4867 44.3946 62.8083 59.1671 61.8158C76.5993 63.1037 77.5959 86.4794 61.184 89.8053L12.6381 89.8467C-3.9626 87.5959 -3.93901 63.6058 13.328 61.9163ZM14.4898 73.105C10.9279 73.0518 10.4856 78.2326 13.8175 78.6343L60.1756 78.4748C62.8529 76.3659 61.6676 73.0695 58.2649 73.0282L14.4898 73.0991V73.105Z" fill="black"/>
</g>
<defs>
<clipPath id="clip0_774_2514">
<rect width="112" height="90" fill="white"/>
</clipPath>
</defs>
</svg>
