<svg width="25" height="24" viewBox="0 0 25 24" fill="none" xmlns="http://www.w3.org/2000/svg">
<path d="M23.268 13.9473C22.7585 13.9473 22.3441 14.3617 22.3441 14.8711V21.3353H2.65578V14.9556C2.65578 14.4461 2.24138 14.0317 1.73195 14.0317C1.22251 14.0317 0.808105 14.4461 0.808105 14.9556V22.2592C0.808105 22.7686 1.22251 23.183 1.73195 23.183H23.268C23.7774 23.183 24.1918 22.7686 24.1918 22.2592V14.8711C24.1918 14.3617 23.7774 13.9473 23.268 13.9473Z" fill="#00406F"/>
<path d="M11.8466 18.1786C11.9627 18.2921 12.1026 18.366 12.2505 18.4056C12.3349 18.432 12.4247 18.4505 12.5171 18.4505C12.8391 18.4505 13.1241 18.2842 13.2878 18.0334L19.298 12.1657C19.6623 11.8094 19.6702 11.2234 19.3139 10.8591C18.9575 10.4949 18.3716 10.487 18.0073 10.8433L13.4382 15.3041V1.23536C13.4382 0.725931 13.0238 0.311523 12.5144 0.311523C12.005 0.311523 11.5906 0.725931 11.5906 1.23536V15.349L6.98985 10.8591C6.62559 10.5028 6.03961 10.5107 5.68328 10.875C5.32694 11.2392 5.33486 11.8252 5.69911 12.1815L11.844 18.1786H11.8466Z" fill="#00406F"/>
</svg>
