<svg width="48" height="48" viewBox="0 0 48 48" fill="none" xmlns="http://www.w3.org/2000/svg">
<g clip-path="url(#clip0_28_758)">
<path d="M23.7873 6.59976C24.2011 6.52277 24.4071 6.69214 24.7709 6.82302C29.3016 8.45131 33.7727 10.9476 38.3169 12.6202C38.5979 12.7819 38.7268 13.1456 38.7326 13.4555C38.4458 21.4623 40.2724 29.2015 34.5425 35.7397C32.2906 38.3091 27.5482 41.3636 24.051 41.4233C20.6193 41.483 15.6651 38.2514 13.4652 35.7397C7.67763 29.1341 9.55998 21.1793 9.304 13.0995L9.52726 12.7453L23.7873 6.59976ZM37.1717 13.8116L24.0433 8.21458L10.8322 13.8077C10.8611 18.0151 10.7013 22.2398 10.9265 26.4376C11.7156 32.5851 16.1636 37.8241 22.1533 39.462C23.7893 39.9105 24.2955 39.8951 25.9276 39.4408C32.3214 37.6624 36.8483 31.821 37.1909 25.2019L37.1717 13.8097V13.8116Z" fill="white"/>
<path d="M45.9694 32.9238C46.3236 33.2318 47.7229 33.2664 47.923 33.9054C48.0193 34.2153 48.025 37.1428 47.9461 37.4988C47.7748 38.2649 46.1754 38.2552 45.9021 38.7268C45.7635 38.9674 45.6384 39.564 45.5114 39.8758C45.4113 40.1222 45.0187 40.7304 45.0052 40.9036C44.9628 41.406 45.9521 42.3722 45.6326 43.0728C45.3324 43.7329 43.6348 44.9185 43.1478 45.596C42.4954 46.0233 41.4098 44.957 40.9094 44.9994C40.5226 45.0321 39.1907 45.9386 38.6344 45.9906C38.2822 46.4429 38.1706 47.7324 37.5778 47.9172C37.241 48.0231 34.4925 48.0211 34.0652 47.9538C33.201 47.8191 33.2472 46.2004 32.8892 45.9309C32.7545 45.8308 31.7055 45.5229 31.4149 45.4074C31.1974 45.3208 30.7336 45.0128 30.5777 44.9994C30.3351 44.9782 29.2997 45.623 28.8878 45.6807C28.5663 45.7269 28.3758 45.5941 28.1371 45.4132C27.8985 45.2323 25.9661 43.2806 25.9026 43.1247C25.5465 42.2567 26.7206 40.3416 27.5636 41.3675C28.0024 41.9006 27.5848 42.0642 27.5597 42.4357C27.5347 42.8071 28.6607 43.6174 28.907 43.9697C29.5595 43.8619 30.1754 43.2287 30.8587 43.3615C31.1454 43.4173 31.8133 43.9042 32.1829 44.062C32.6275 44.2526 33.6822 44.4566 33.9651 44.6856C34.3308 44.982 34.5175 45.9559 34.6946 46.4083L36.7367 46.4236C36.9022 46.3832 37.1832 44.9051 37.5739 44.6433C37.8492 44.4605 38.8635 44.2333 39.2985 44.0582C39.6795 43.9042 40.4841 43.373 40.8016 43.3403C41.2751 43.2922 42.0623 43.8311 42.5262 43.987L43.9716 42.5704C44.0236 42.4549 43.4346 41.3983 43.3827 41.1288C43.2653 40.5225 43.8292 39.8681 44.0602 39.2926C44.2238 38.8885 44.5067 37.7336 44.6857 37.5123C44.9455 37.189 46.3371 36.8926 46.4083 36.7809L46.4275 34.735C46.4064 34.6561 45.1072 34.2807 44.8897 34.1383C44.4663 33.8612 44.2873 32.7121 44.0621 32.1751C43.9158 31.8268 43.375 31.0222 43.3422 30.7701C43.2614 30.1503 43.8792 29.5075 43.9697 28.8993C43.9312 28.8127 42.6898 27.5924 42.5974 27.5674C42.2375 27.4692 41.4002 28.1775 40.792 28.1371C40.5033 28.1179 39.1945 27.3999 39.0829 27.144C38.825 26.5492 39.2542 25.9468 39.899 26.0296C40.2454 26.0738 40.7304 26.4876 40.9845 26.4876C41.5022 26.4876 42.2586 25.6061 43.0593 25.864C43.296 25.941 45.4844 28.1487 45.6057 28.42C45.8944 29.0571 45.1438 29.9252 44.9994 30.568C45.3458 30.901 45.7847 32.7622 45.9637 32.9181L45.9694 32.9238Z" fill="white"/>
<path d="M15.0763 2.03248C15.6633 2.05558 17.0221 2.96404 17.4263 2.99676C17.9479 3.04102 19.0604 1.91508 19.7225 2.43859C20.119 3.03718 21.9513 4.38061 22.1303 4.93685C22.2823 5.41033 21.7299 6.89234 21.2391 7.03862C20.7002 7.20029 20.1517 6.82883 20.1806 6.25527C20.1921 6.01468 20.5482 5.5412 20.4924 5.41995C20.452 5.32949 19.1855 4.06304 19.095 4.02262C18.4868 4.11308 17.8459 4.73091 17.2242 4.65007C16.9702 4.61735 16.1714 4.07844 15.8192 3.93216C15.3361 3.73199 14.6297 3.62613 14.2121 3.42211C13.6597 3.15073 13.3864 1.60135 13.2594 1.56671L11.2153 1.58595C11.0209 2.00939 10.8034 3.09684 10.4281 3.34898C10.126 3.55107 9.14243 3.74739 8.70168 3.93216C8.33984 4.08421 7.57188 4.60773 7.29857 4.65007C6.71924 4.73668 6.02443 4.18814 5.47589 4.0053L4.03044 5.42187C3.96693 5.56238 4.58475 6.59209 4.63864 6.84038C4.77145 7.4736 4.19211 8.10105 3.93998 8.69578C3.76483 9.11152 3.51655 10.2298 3.31638 10.4781C3.05654 10.8033 1.64767 11.1247 1.59378 11.2094L1.57453 13.2535C1.59762 13.3401 2.96031 13.7212 3.21437 13.9406C3.49922 14.185 3.74943 15.3629 3.93998 15.8133C4.08626 16.1598 4.6271 16.9701 4.65982 17.2183C4.73295 17.7842 4.19596 18.454 4.02852 18.9871C3.99965 19.1835 5.24107 20.2189 5.42969 20.4845C5.54325 20.5365 6.54217 19.961 6.77506 19.9014C7.55071 19.7012 8.84796 20.4711 8.40143 21.3353C8.01071 22.0897 7.3005 21.4546 6.94636 21.5085C6.33045 21.5989 5.68953 22.4266 4.87923 22.0936C4.71563 22.0262 2.45989 19.7705 2.37713 19.5896C2.05955 18.887 3.04692 17.9228 3.00458 17.4204C2.9911 17.2665 2.68315 16.8007 2.59654 16.5832C2.48106 16.2926 2.17311 15.2436 2.07302 15.1089C1.80357 14.7509 0.184897 14.7971 0.0501687 13.9329C-0.0171957 13.5056 -0.0171957 10.7571 0.0867379 10.4203C0.29268 9.76014 1.75737 9.74474 2.0711 9.32516C2.20775 9.14231 2.3829 8.40323 2.50031 8.11837C2.60039 7.87201 2.99303 7.26381 3.0065 7.09059C3.04885 6.59016 1.98256 5.50464 2.40985 4.85216C3.08734 4.36522 4.27295 2.66571 4.93312 2.36738C5.63564 2.04981 6.59991 3.03718 7.10226 2.99483C7.2774 2.97943 7.88176 2.58872 8.13004 2.48864C8.44954 2.35968 9.03273 2.25575 9.27909 2.09792C9.79298 1.76495 9.74294 0.225194 10.507 0.0538961C10.8631 -0.0250164 13.7906 -0.021167 14.1005 0.0769925C14.6355 0.244441 14.8492 1.55516 15.082 2.03056L15.0763 2.03248Z" fill="white"/>
<path d="M38.6575 31.0492C39.4486 30.2562 40.5687 31.8267 40.9421 32.4157C44.4663 37.9704 38.0551 44.4354 32.4793 40.9748C31.8941 40.613 30.6431 39.795 31.3687 39.0155C32.0327 38.3033 32.9027 39.462 33.4782 39.7834C37.8915 42.247 42.4934 36.8136 39.3966 32.9026C39.0117 32.4176 37.9223 31.7844 38.6556 31.0511L38.6575 31.0492Z" fill="white"/>
<path d="M16.7564 9.05373C16.1309 9.79474 15.3937 8.80159 14.9299 8.48209C10.9515 5.73555 5.99735 10.0142 8.12221 14.3274C8.41862 14.9279 9.28665 15.5977 8.70155 16.254C7.65066 17.4358 6.41501 14.464 6.24179 13.7057C5.08312 8.60335 10.224 4.43061 14.9741 6.7056C15.6555 7.0328 17.509 8.16067 16.7545 9.05565L16.7564 9.05373Z" fill="white"/>
<path d="M23.8855 10.9265L24.4841 11.0555C27.5289 12.5413 30.9761 13.6095 33.9805 15.1262C34.377 15.3264 34.7234 15.4053 34.6907 15.9557C34.4732 22.4766 35.9957 28.6722 30.9318 33.763C29.5229 35.1796 26.0585 37.3256 24.0472 37.3757C22.6402 37.4103 19.6762 35.859 18.5252 35.0064C11.9735 30.1485 13.4344 23.1618 13.3151 15.9557C13.2804 15.4072 13.6269 15.3244 14.0253 15.1262C17.1471 13.5595 20.7117 12.4393 23.8836 10.9265H23.8855ZM33.1336 16.4061L23.9702 12.5741L14.8721 16.4061L14.8567 25.4945C15.2455 29.65 17.8362 33.3704 21.6586 35.0526C23.2965 35.7724 23.9375 35.9553 25.662 35.3317C29.8289 33.8227 32.7468 29.8963 33.149 25.4965L33.1336 16.408V16.4061Z" fill="white"/>
<path d="M23.4062 16.7122C29.3382 16.2214 33.3281 22.7461 30.2023 27.8388C27.1017 32.8912 19.4799 32.2406 17.2491 26.7572C15.3918 22.1918 18.5271 17.1163 23.4062 16.7122ZM23.5987 18.2519C15.5593 18.8543 17.2684 31.2436 25.1635 29.6307C32.129 28.2084 30.6316 17.7246 23.5987 18.2519Z" fill="white"/>
<path d="M26.7687 21.3276C27.5001 21.1351 28.1083 21.7029 27.7426 22.3977C27.6425 22.5883 27.1729 23.0002 26.9862 23.1811C25.7524 24.3783 24.3724 25.4484 23.1291 26.6379C22.7884 26.8053 22.4843 26.7476 22.1783 26.5435C21.8722 26.3395 20.319 24.7324 20.2266 24.4514C20.0284 23.8567 20.4191 23.3389 21.06 23.4217C21.5989 23.491 22.5305 24.9018 22.7884 24.8556L26.3125 21.6375C26.4318 21.5413 26.632 21.3623 26.7687 21.3257V21.3276Z" fill="white"/>
</g>
<defs>
<clipPath id="clip0_28_758">
<rect width="48" height="48" fill="white"/>
</clipPath>
</defs>
</svg>
