<svg width="16" height="11" viewBox="0 0 16 11" fill="none" xmlns="http://www.w3.org/2000/svg">
<path d="M0.67301 3.17749C0.938274 3.3756 1.18745 3.56111 1.43619 3.74706C3.2265 5.08342 5.01726 6.41892 6.80583 7.75746C7.25809 8.0959 7.75687 8.21581 8.30871 8.10024C8.57571 8.0442 8.80966 7.913 9.02709 7.75051C11.0322 6.25296 13.0378 4.75585 15.0429 3.2583C15.0742 3.23527 15.1056 3.21225 15.1382 3.18835C15.1669 3.22398 15.1556 3.2583 15.1556 3.28958C15.156 5.18726 15.1586 7.08494 15.1551 8.98261C15.1538 9.67643 14.8542 10.2178 14.2685 10.5892C13.971 10.7782 13.6349 10.8503 13.2813 10.8499C10.1286 10.8486 6.9763 10.849 3.82357 10.849C3.38958 10.849 2.95602 10.8516 2.52203 10.8486C1.83191 10.8438 1.29964 10.5449 0.931752 9.96621C0.746501 9.67426 0.668227 9.34408 0.668227 8.99869C0.667357 7.09189 0.667792 5.18508 0.668227 3.27828C0.668227 3.25135 0.670401 3.22441 0.672575 3.17749H0.67301Z" fill="white"/>
<path d="M7.91762 0.000954097C9.851 0.000954097 11.784 8.56216e-05 13.7173 0.00138897C14.0796 0.00138897 14.4131 0.101314 14.6906 0.339827C14.9402 0.55488 15.0832 0.836836 15.1315 1.16007C15.2115 1.69531 15.015 2.12629 14.5897 2.44691C12.565 3.97357 10.5372 5.49588 8.5099 7.01949C8.13548 7.30102 7.6941 7.30319 7.32273 7.02384C5.29281 5.49892 3.26375 3.97313 1.2347 2.44734C0.854196 2.16104 0.661988 1.77786 0.677643 1.30387C0.688515 0.967173 0.816798 0.664794 1.04858 0.419765C1.27427 0.181252 1.56563 0.0587367 1.89003 0.0152917C2.02049 -0.00208631 2.15182 8.70004e-05 2.28314 8.70004e-05C4.1613 8.70004e-05 6.03946 8.70004e-05 7.91805 8.70004e-05L7.91762 0.000954097Z" fill="white"/>
</svg>
