<svg width="33" height="27" viewBox="0 0 33 27" fill="none" xmlns="http://www.w3.org/2000/svg">
<g clip-path="url(#clip0_253_3402)">
<path d="M0 4.48968C0.169057 4.13671 0.426025 3.7571 0.872336 3.73046H17.751C17.8389 3.6905 18.0959 2.92462 18.1906 2.75812C20.0164 -0.704991 25.2369 -0.0057084 26.1836 3.7238L32.1953 3.73712C33.3719 4.06345 33.2367 5.60853 31.9992 5.75505L26.2174 5.76837C25.9875 6.20792 25.859 6.65413 25.5615 7.08702C23.4246 10.1239 18.7789 9.25146 17.8254 5.75505H1.12254C0.527459 5.70843 0.277254 5.49532 0 4.99583V4.48968ZM24.2225 4.71611C24.2225 3.50402 23.2217 2.51837 21.991 2.51837C20.7602 2.51837 19.7594 3.50402 19.7594 4.71611C19.7594 5.92821 20.7602 6.91386 21.991 6.91386C23.2217 6.91386 24.2225 5.92821 24.2225 4.71611Z" fill="#30A7FF"/>
<path d="M0 13.247C0.169057 12.8674 0.426025 12.5477 0.872336 12.4878L6.78934 12.4745C6.87725 12.4412 7.0125 11.9483 7.07336 11.8018C8.39877 8.91145 12.2668 8.36535 14.3361 10.8295C14.7418 11.309 14.9852 11.8951 15.1814 12.4811H32.06C33.3043 12.6476 33.3043 14.3326 32.06 14.5057H15.1814C14.282 18.0754 9.32521 18.9145 7.35738 15.7311C7.1207 15.3449 6.99221 14.8853 6.78934 14.5124L0.872336 14.4991C0.426025 14.4391 0.169057 14.1194 0 13.7398V13.2337L0 13.247ZM13.2338 13.5001C13.2338 12.288 12.233 11.309 11.009 11.309C9.78504 11.309 8.78422 12.2946 8.78422 13.5001C8.78422 14.7055 9.78504 15.6912 11.009 15.6912C12.233 15.6912 13.2338 14.7055 13.2338 13.5001Z" fill="#30A7FF"/>
<path d="M0 22.0043C0.256967 21.5048 0.547746 21.2917 1.12254 21.2384H17.8119C18.7654 17.742 23.4111 16.8762 25.548 19.9131C25.8523 20.346 25.974 20.7922 26.2039 21.2318L31.9857 21.2451C33.2164 21.3916 33.3584 22.9167 32.1818 23.263L26.1701 23.2763C25.2234 27.0058 20.0029 27.7051 18.177 24.242C18.0891 24.0688 17.8322 23.303 17.7375 23.2763H0.865574C0.432787 23.2097 0.162295 22.8701 0 22.5038V21.9976V22.0043ZM24.2225 22.284C24.2225 21.0719 23.2217 20.0863 21.991 20.0863C20.7602 20.0863 19.7594 21.0719 19.7594 22.284C19.7594 23.4961 20.7602 24.4818 21.991 24.4818C23.2217 24.4818 24.2225 23.4961 24.2225 22.284Z" fill="#30A7FF"/>
</g>
<defs>
<clipPath id="clip0_253_3402">
<rect width="33" height="26" fill="white" transform="translate(0 0.5)"/>
</clipPath>
</defs>
</svg>
