<svg width="88" height="101" viewBox="0 0 88 101" fill="none" xmlns="http://www.w3.org/2000/svg">
<g clip-path="url(#clip0_774_2552)">
<path d="M40.6318 101V21.6924H66.1233C70.4311 21.6924 75.6155 27.6941 75.3715 32.041L75.3776 97.9082C75.3233 98.6312 75.0341 99.5508 74.5311 100.08C74.3142 100.307 73.1273 101 72.8923 101H40.6318Z" fill="black"/>
<path d="M34.7664 21.6924V101H2.50594C1.78897 101 0.285754 99.6053 0.168268 98.8158C-0.166115 76.5424 0.117056 54.1934 0.0266823 31.8898C0.400227 27.691 3.08132 23.822 7.05174 22.3307C7.39516 22.2036 9.03093 21.6924 9.27494 21.6924H34.7664Z" fill="black"/>
<path d="M63.5896 5.47526C61.0742 8.37022 57.7213 10.9415 55.2029 13.8939C53.781 15.1191 52.3772 15.2431 50.8559 14.0664C48.2743 10.9808 44.355 8.17057 41.9089 5.07596C39.3272 1.81194 43.2465 -1.6366 46.1987 0.919554L52.7357 7.50204L53.0219 7.63212L59.9596 0.695701C62.7371 -1.36738 66.1321 1.73631 64.3126 4.61313C64.1831 4.8158 63.7824 5.25746 63.5926 5.47526H63.5896Z" fill="black"/>
<path d="M16.1678 13.437C15.8335 13.7305 15.5985 14.1328 15.1105 14.4141C12.1402 16.1384 9.27232 12.6445 11.372 9.9038C13.7609 6.78499 17.9211 3.88397 20.4727 0.765159C22.6145 -0.768535 23.8948 0.226702 25.5095 1.75435C27.8532 3.9717 31.2874 7.21757 33.3148 9.6255C36.0892 12.9167 32.3448 16.4137 29.495 14.2175L22.5061 7.19337C20.3702 9.24737 18.4001 11.4859 16.1678 13.437Z" fill="black"/>
<path d="M84.3575 52.0912C87.9965 51.456 89.3612 56.2174 86.2583 57.624C82.1011 59.5086 80.4473 52.7718 84.3575 52.0912Z" fill="black"/>
<path d="M84.3571 64.781C87.0382 64.3212 89.0536 67.0891 87.4058 69.3519C85.2458 72.3134 80.8024 69.6271 82.4713 66.2089C82.8298 65.4707 83.5468 64.9232 84.3602 64.7841L84.3571 64.781Z" fill="black"/>
</g>
<defs>
<clipPath id="clip0_774_2552">
<rect width="88" height="101" fill="white"/>
</clipPath>
</defs>
</svg>
