<svg width="103" height="90" viewBox="0 0 103 90" fill="none" xmlns="http://www.w3.org/2000/svg">
<g clip-path="url(#clip0_774_2507)">
<path d="M64.467 36.0416C64.5073 36.2028 64.7292 36.369 64.9813 36.3136C65.556 36.1776 67.3054 35.1453 67.9961 34.7928C77.429 29.9987 86.6148 24.6456 96.0123 19.7709C99.4457 18.3206 102.894 20.8284 102.995 24.4643V80.0647C102.496 85.8911 98.9566 89.5824 93.0529 90.0003H9.69501C3.80641 89.4414 0.428537 85.6444 0 79.8129V7.36269C0.40837 4.19013 1.06378 1.45065 4.49207 0.529097C7.0885 -0.165844 16.7885 -0.0651282 19.7681 0.206806C22.0822 0.41831 24.3812 1.51612 25.2433 3.7923C25.3492 4.07431 25.9441 6.22964 25.9441 6.36057V36.0366C25.9441 36.1021 26.3373 36.51 26.5441 36.3941L57.8575 19.6299C60.1514 18.7033 63.1965 20.0731 64.0183 22.3996C64.1091 22.6564 64.467 24.0715 64.467 24.2175V36.0366V36.0416ZM20.3378 56.346C19.2085 56.5777 18.0792 57.8064 17.9027 58.9445C17.6154 60.7876 17.6456 67.3342 17.8826 69.2478C18.0187 70.3607 18.7649 71.7203 19.8942 72.0124C21.3008 72.375 29.4178 72.3398 31.1117 72.1383C32.9671 71.9167 33.6073 70.7132 33.7586 69.001C33.9703 66.5889 33.9603 62.0969 33.7586 59.6747C33.6174 58.0078 32.9015 56.5827 31.0916 56.3057C29.5337 56.064 21.7949 56.0489 20.3378 56.346ZM46.0198 56.346C44.4821 56.6582 43.7208 57.9726 43.5746 59.438C43.3427 61.7545 43.3376 66.6745 43.5746 68.9859C43.7057 70.2549 44.2149 71.6549 45.5812 72.0124C46.9474 72.37 55.1199 72.3398 56.7987 72.1383C58.4776 71.9369 58.9565 71.1009 59.3649 69.6708C59.9044 67.7723 59.9649 60.3596 59.3044 58.5618C58.8456 57.3079 57.9079 56.4518 56.5467 56.2856C54.7922 56.0741 47.6079 56.0288 46.0248 56.3511L46.0198 56.346ZM71.7017 56.346C70.5724 56.5777 69.4431 57.8064 69.2666 58.9445C68.9792 60.7876 69.0095 67.3342 69.2465 69.2478C69.3826 70.3607 70.1287 71.7203 71.2581 72.0124C72.6697 72.38 80.7766 72.3398 82.4756 72.1383C83.8822 71.9721 84.9561 70.8794 85.1225 69.4995C85.3846 67.314 85.3645 61.3869 85.1174 59.1812C84.9561 57.751 83.9074 56.5273 82.4555 56.3057C80.8976 56.064 73.1587 56.0489 71.7017 56.346Z" fill="black"/>
</g>
<defs>
<clipPath id="clip0_774_2507">
<rect width="103" height="90" fill="white"/>
</clipPath>
</defs>
</svg>
