<svg width="90" height="90" viewBox="0 0 90 90" fill="none" xmlns="http://www.w3.org/2000/svg">
<g clip-path="url(#clip0_774_2523)">
<path d="M59.8217 39.8543C61.7959 41.7962 63.2705 44.0307 64.4242 46.5576C69.4046 47.5002 73.7391 50.7137 75.8758 55.3249C76.4649 56.5924 76.7939 57.8965 77.1636 59.2291C81.8068 60.1025 85.8772 62.9748 88.1155 67.1391C93.5671 77.2794 86.5515 89.313 75.2502 89.9996H14.7506C4.24143 89.3618 -2.81883 78.7907 1.09316 68.821C3.0593 63.8117 7.55626 60.2122 12.8372 59.2291C13.1053 58.384 13.2597 57.5106 13.5563 56.6737C15.429 51.3881 20.0925 47.5977 25.5766 46.5576C27.3924 42.495 30.3823 38.932 34.2374 36.6773C42.6341 31.7615 52.9239 33.0737 59.8176 39.8543H59.8217Z" fill="black"/>
<path d="M43.3942 30.9249L39.011 31.6562C39.1532 30.604 39.2954 29.6452 39.332 28.5808C39.7666 16.2384 26.2676 8.31217 15.6854 14.8409C2.90948 22.7224 7.63798 42.0241 22.7538 43.5638C23.1356 43.6045 24.3746 43.381 23.7043 44.0392C23.4809 44.2585 21.8316 44.7095 21.3645 44.8964C20.6332 45.1889 19.898 45.5545 19.2074 45.9364C18.8133 46.1517 18.0374 46.814 17.6475 46.7611C17.2209 46.7043 15.8885 46.0786 15.4254 45.8592C1.07738 39.0299 0.443667 18.7694 14.2758 10.961C27.8763 3.2826 44.4748 13.8943 43.5649 29.3852C43.5364 29.893 43.3333 30.4008 43.3902 30.929L43.3942 30.9249Z" fill="black"/>
<path d="M35.6308 32.8343C35.5049 32.9806 34.2821 33.4681 33.9856 33.6265C31.211 35.1175 28.859 37.0026 26.7831 39.3711C26.0194 40.2405 26.1941 40.6549 24.821 40.7646C13.0323 41.7234 6.46762 26.9922 15.1122 18.9075C24.0898 10.51 38.6491 18.42 36.3498 30.5592C36.2808 30.933 35.8177 32.6068 35.6267 32.8343H35.6308ZM21.8271 21.1095V19.4722C21.8271 19.3951 21.5793 18.9319 21.5062 18.8344C20.8197 17.9122 19.207 18.2331 19.0363 19.3991C18.9876 19.7282 19.1095 20.8739 18.9957 21.0364C18.882 21.1989 17.582 21.0607 17.2489 21.1298C16.2131 21.3411 15.8799 22.7508 16.5787 23.4821C16.6599 23.5674 17.2449 23.9087 17.3099 23.9087H18.9064C18.9713 23.9087 19.0485 24.1037 19.0323 24.1849C18.8089 26.6794 19.3166 29.6695 19.0323 32.103C19.0242 32.1843 18.9957 32.3793 18.9064 32.3793H17.1474C17.123 32.3793 16.8061 32.5743 16.7493 32.619C16.0221 33.1675 16.0181 34.3172 16.7493 34.8575C16.8793 34.955 17.3383 35.1785 17.4683 35.1785H19.0282C19.1013 36.1291 18.7073 37.1773 19.6904 37.7542C20.2794 38.0995 20.9619 38.0183 21.425 37.5145C21.5347 37.3967 21.8231 36.8604 21.8231 36.7385V35.1785H24.6179V36.897C24.6179 36.9254 24.8576 37.352 24.9023 37.4129C25.4669 38.1605 26.6247 38.1523 27.1609 37.3642C27.5996 36.7182 27.3478 35.9219 27.4168 35.1825C31.6376 34.9875 33.1812 29.8564 29.7405 27.37C29.8745 26.8378 30.1548 26.3422 30.2117 25.7856C30.4067 23.8112 29.3099 22.0358 27.4534 21.3533C27.299 20.5326 27.6443 19.586 27.1487 18.8588C26.6978 18.1925 25.6254 18.1072 25.0445 18.6597C24.9592 18.741 24.6179 19.326 24.6179 19.391V20.9876C24.6179 20.9876 24.5082 21.1095 24.4961 21.1095H21.819H21.8271Z" fill="black"/>
<path d="M57.9289 7.0649L76.847 7.04053C80.8727 7.41429 84.6872 10.0225 86.2472 13.7845C86.5803 14.593 86.8809 15.438 86.0319 16.0759C85.0366 16.8193 83.8626 15.763 82.9283 15.3446C81.3683 14.6458 79.7312 14.2761 78.0373 14.0811H56.9377C55.39 14.2599 53.8788 14.5727 52.4367 15.1699C51.8314 15.4218 50.7631 16.149 50.2715 16.279C49.6216 16.4496 48.9675 16.279 48.6019 15.7021C48.147 14.9871 48.4394 14.4833 48.736 13.7845C50.3122 10.0591 53.9195 7.51992 57.9249 7.06897L57.9289 7.0649Z" fill="black"/>
<path d="M70.335 45.4446C70.335 45.4649 70.2416 45.6518 70.2172 45.6436C68.9985 44.957 67.6458 44.5711 66.3459 44.0836C66.2605 43.6367 64.6641 41.455 64.6641 41.2925V16.9979C64.6641 16.9979 64.7737 16.876 64.7859 16.876H70.2213C70.2213 16.876 70.3431 16.9857 70.3431 16.9979V45.4486L70.335 45.4446Z" fill="black"/>
<path d="M64.6599 2.3683C64.989 0.0932125 68.1332 -0.865574 69.6078 0.954495C69.8596 1.26326 70.3309 2.15298 70.3309 2.53081V4.12743C70.3309 4.12743 70.2212 4.24931 70.209 4.24931H64.7737C64.7737 4.24931 64.6518 4.13962 64.6518 4.12743C64.6518 3.61147 64.5827 2.84363 64.6518 2.3683H64.6599Z" fill="black"/>
<path d="M27.7014 29.4987C28.1604 29.584 28.7129 30.1568 28.8185 30.6159C28.9688 31.2619 28.5423 32.0622 27.9004 32.2572C27.8395 32.2775 27.3276 32.3751 27.2992 32.3751H21.9451C21.9451 32.3751 21.8232 32.2654 21.8232 32.2532V29.4946H27.6973L27.7014 29.4987Z" fill="black"/>
<path d="M21.8271 26.7038V23.9087H26.3403C26.3688 23.9087 26.7669 24.1078 26.8197 24.1484C27.6403 24.7131 27.6281 25.8994 26.8197 26.4682C26.7669 26.5047 26.4419 26.7079 26.4216 26.7079H21.8271V26.7038Z" fill="black"/>
</g>
<defs>
<clipPath id="clip0_774_2523">
<rect width="90" height="90" fill="white"/>
</clipPath>
</defs>
</svg>
