<svg width="48" height="48" viewBox="0 0 48 48" fill="none" xmlns="http://www.w3.org/2000/svg">
<g clip-path="url(#clip0_28_737)">
<path d="M21.2271 3.45141C22.5316 3.74535 23.7631 4.30669 24.9197 4.96664C26.0932 4.62339 27.4202 3.16695 28.6479 4.0393C29.0016 4.28962 30.774 6.09311 31.0323 6.45912C31.3654 6.92753 31.4796 7.32767 31.3186 7.88711C31.1577 8.44655 30.1976 9.90489 30.1976 10.2519C30.1976 10.6691 31.2232 12.0858 31.2718 12.6642C31.8333 13.2198 32.1721 12.7457 32.7204 12.5314C32.9319 12.448 33.9538 12.1237 34.0062 12.0801C34.4254 11.7198 34.1466 10.0813 35.4772 9.91816C35.9058 9.86696 37.6894 9.86696 38.0263 9.99402C38.9621 10.3486 38.7749 11.6667 39.1754 12.0535C39.4225 12.2906 40.8524 12.5523 41.208 12.941C42.1999 12.7078 42.6921 11.8487 43.7552 12.4404C44.137 12.6528 45.477 13.986 45.5893 14.3747C45.9131 15.4746 44.938 16.0777 44.9773 16.694C45.0035 17.1074 45.7914 18.2282 45.827 18.7782C46.147 19.2087 47.3935 18.9868 47.8202 19.8876C48.0429 20.356 48.0579 22.3757 47.867 22.8555C47.5282 23.7145 46.4839 23.6861 45.8101 24.09C45.7727 24.7045 44.8856 25.9371 45.0147 26.4207C45.2206 27.1831 46.0684 27.7691 45.4433 28.7438C45.3198 28.9372 43.7271 30.5018 43.5755 30.5492C42.5068 30.8849 41.8911 29.8892 41.2847 29.9291C40.8767 29.9556 39.7706 30.754 39.2279 30.79C38.7469 31.6283 38.7506 32.9747 37.4873 32.9633C38.3819 36.5077 37.71 40.2607 35.5615 43.1944C28.9717 52.1967 14.7703 47.7363 14.2818 36.612C14.2443 35.7548 14.512 34.782 14.4652 34.0632C14.4558 33.9286 13.9206 32.2806 13.8588 32.2048C13.7821 32.1118 11.9404 31.5145 11.598 31.3665C11.0908 31.1466 10.6135 30.8412 10.1175 30.5947C8.76815 31.0404 7.66018 32.5044 6.23031 31.3988C5.77177 31.0442 4.49162 29.7337 4.12667 29.2634C3.0187 27.843 4.41863 26.6862 4.88839 25.3284C4.29324 24.1204 3.68498 22.9143 3.37617 21.5868C2.24949 20.8832 0.293705 21.1373 0.0653743 19.4419C-0.0263323 18.7649 -0.0188461 16.9159 0.0560165 16.2256C0.246916 14.5094 2.12035 14.6288 3.33312 14.0466C3.71118 12.7381 4.22773 11.4979 4.87904 10.3069C4.5721 9.1615 3.36681 8.07296 3.7954 6.8346C3.91892 6.47808 5.95706 4.356 6.33324 4.09619C7.70323 3.14419 8.84675 4.52098 10.1026 4.97043C11.276 4.37306 12.4589 3.76432 13.7521 3.459C14.4989 2.2946 14.2331 0.263548 16.013 0.0606318C16.7129 -0.0190174 18.2981 -0.00953534 19.0075 0.0606318C20.778 0.240791 20.6544 2.15616 21.2271 3.45331V3.45141ZM19.0412 1.58724L16.0579 1.61948C15.7846 1.78447 15.5039 4.04499 14.7965 4.60822C14.3323 4.97612 13.0054 5.25869 12.3484 5.54125C11.5231 5.89588 10.6247 6.67531 9.69644 6.45912C9.25475 6.35671 7.51607 5.19042 7.26715 5.31558L5.21592 7.42628C5.15977 7.65196 6.45115 9.57112 6.42682 10.343C6.40998 10.8796 5.59397 12.154 5.3488 12.7647C5.08865 13.4151 4.86594 14.6763 4.41489 15.1371C3.93577 15.6264 1.65808 16.0682 1.57011 16.3318L1.60006 19.3092C2.42167 19.7643 3.88149 19.8022 4.50847 20.5343C4.87904 20.9685 5.00443 21.8864 5.23089 22.4572C5.48168 23.0868 6.41185 24.7367 6.42869 25.2336C6.45489 26.0357 5.15416 27.8904 5.21966 28.1502L7.32704 30.2875C7.58906 30.3387 9.24914 29.1572 9.84804 29.0776C10.7033 28.9657 11.6242 29.7299 12.414 30.0637C13.3479 30.4582 14.643 30.5492 15.1726 31.4405C17.2744 26.6919 22.191 23.5173 27.3846 24.2342C27.4239 24.0274 27.2948 24.0142 27.1563 23.944C26.417 23.5685 25.3652 23.7202 25.2304 22.5767C25.1743 22.1026 25.1687 20.6708 25.2379 20.21C25.4232 18.9925 27.0346 19.1992 27.3621 18.8066C27.4071 18.7535 27.7233 17.7219 27.8076 17.5038C27.8918 17.2857 28.1519 16.9159 28.1856 16.7433C28.2642 16.3546 27.4108 15.4329 27.48 14.7161C27.5549 13.9461 28.9679 12.8652 29.5238 12.3361C29.5369 12.1806 28.8126 11.0693 28.7359 10.7715C28.4383 9.61095 29.4995 8.43707 29.8831 7.40163L27.7907 5.28524C26.8905 5.54694 25.7545 6.5748 24.8112 6.50463C24.3601 6.47239 22.5372 5.45212 21.8859 5.198C21.1298 4.90216 20.3269 4.94578 19.8778 4.10377C19.6868 3.74725 19.1516 1.65741 19.0412 1.58534V1.58724ZM37.3862 11.4448L35.8179 11.4486C35.7542 11.4903 35.4716 12.613 35.3556 12.8292C34.9682 13.5555 34.1447 13.5688 33.4672 13.8551C33.0536 14.0296 32.4659 14.4506 32.0654 14.5264C31.4852 14.6383 30.7197 14.1016 30.2219 13.8191C30.1133 13.8077 29.1027 14.8052 29.084 14.9095C29.0428 15.1238 29.8008 16.1441 29.7858 16.6827L28.6535 19.5936C28.3803 20.4015 27.2536 20.2896 26.7857 20.6215C26.6491 20.7182 26.7632 21.9623 26.7389 22.2353C27.3921 22.406 28.3279 22.6051 28.6722 23.2632C28.8089 23.5249 28.9567 24.4067 29.1308 24.5281C29.3497 24.6798 30.4483 24.9662 30.8414 25.1406C33.2201 26.1931 35.0898 27.9777 36.3812 30.242C36.4916 30.4354 36.8865 31.3931 36.9408 31.4272C37.0026 31.4652 37.3432 31.4671 37.3844 31.4329C37.4405 31.3855 37.695 30.2609 37.8148 30.0201C38.2303 29.1857 40.0775 29.0397 40.8318 28.4309C41.6216 27.9416 42.3365 28.8917 42.9167 29.0359C43.2012 29.106 43.8656 28.1976 44.107 27.9834C43.888 27.4049 43.3322 26.7298 43.379 26.0869L44.5506 23.1892C44.9118 22.4629 45.8476 22.5141 46.4802 22.1879L46.4614 20.6461C45.8775 20.4053 45.2019 20.3257 44.6947 19.9236L43.4501 17.0126C43.19 16.2067 43.9142 15.5733 44.0902 14.8469C43.8656 14.7009 43.218 13.8551 43.044 13.821C42.825 13.7793 41.79 14.5682 41.2903 14.5568C40.901 14.5473 39.838 13.931 39.3869 13.7337C38.9359 13.5365 38.4249 13.5403 38.0619 13.18C37.6763 12.7988 37.5472 11.9644 37.3881 11.4448H37.3862ZM18.8072 43.4505C24.0682 48.7813 33.134 46.8128 35.7131 39.7392C38.9059 30.9835 30.1096 22.7132 21.7343 26.6179C15.3036 29.6162 13.7877 38.3643 18.8053 43.4486L18.8072 43.4505Z" fill="white"/>
<path d="M12.444 22.9692C8.93299 19.4419 9.96796 13.2881 14.4504 11.1774C20.8829 8.14689 27.3305 15.2982 23.7146 21.5128C21.3471 25.5806 15.7642 26.305 12.444 22.9692ZM16.8834 12.0326C9.67974 12.7741 10.5182 24.1052 17.9783 23.5723C25.4271 23.0394 24.6373 11.2342 16.8834 12.0326Z" fill="white"/>
<path d="M35.6889 16.5802C40.8375 15.8747 43.5008 22.1082 39.5499 25.3283C36.75 27.6097 32.3668 25.8574 31.7923 22.2827C31.388 19.77 33.0836 16.9386 35.6907 16.5802H35.6889ZM35.8741 18.0954C32.4885 18.6302 32.3388 24.1507 35.8929 24.7632C41.1463 25.6659 41.2642 17.2439 35.8741 18.0954Z" fill="white"/>
<path d="M25.8687 26.9157C33.0331 26.7413 37.6091 34.8712 33.6919 41.0117C29.9712 46.8432 21.4743 46.5284 18.1635 40.4523C14.9107 34.4824 19.2022 27.0788 25.8687 26.9157ZM25.3241 28.503C21.7812 28.8064 19.0113 31.7592 18.5846 35.2808C19.3257 35.2846 20.2709 35.3491 19.9471 36.3769C19.7206 37.0956 18.5771 36.7486 18.5846 36.8946C19.03 40.4485 21.7663 43.2229 25.2754 43.6743C25.3821 43.68 25.0602 41.8727 26.3797 42.2709C26.9599 42.4454 26.769 43.1205 26.8195 43.534C26.8363 43.6743 26.7671 43.6933 26.9524 43.6686C29.7298 43.3102 32.2227 41.3436 33.1585 38.6716C33.3194 38.2126 33.5552 37.4636 33.559 36.9894C33.5609 36.7221 33.0892 36.8776 32.859 36.8396C32.2583 36.741 31.9195 36.1455 32.2938 35.6146C32.582 35.2068 33.1285 35.3453 33.5552 35.3282C33.2745 31.7914 30.3081 28.7856 26.8176 28.5011C27.1358 30.4487 25.0321 30.3899 25.3204 28.5011L25.3241 28.503Z" fill="white"/>
<path d="M26.8214 35.3301H30.4242C30.8883 35.3301 31.3188 36.5817 30.383 36.8055C29.7897 36.9477 26.7989 36.9306 26.1177 36.8491C25.6666 36.796 25.3747 36.4869 25.3223 36.0431C25.2418 35.3547 25.2249 32.3186 25.3653 31.7212C25.588 30.7749 26.8214 31.2111 26.8214 31.6795V35.3301Z" fill="white"/>
</g>
<defs>
<clipPath id="clip0_28_737">
<rect width="48" height="48" fill="white"/>
</clipPath>
</defs>
</svg>
