<svg width="51" height="47" viewBox="0 0 51 47" fill="none" xmlns="http://www.w3.org/2000/svg">
<g clip-path="url(#clip0_28_769)">
<path d="M34.1858 30.6917C34.4407 30.9907 35.9142 30.9769 36.1771 31.6323C36.3185 31.9847 36.3085 34.3688 36.1612 34.7331C35.9222 35.3212 34.7175 35.3232 34.2137 35.6678C34.1719 36.2361 33.4989 37.0934 33.4132 37.539C33.3356 37.9508 34.4666 38.7785 34.0863 39.6993C34.0066 39.8913 32.1687 41.6972 31.9775 41.7586C31.2029 42.0061 30.4184 41.0477 29.9305 41.0477C29.6896 41.0477 28.4709 41.8121 28.0488 41.8121C27.5291 42.4417 27.764 43.7189 26.7386 43.8753C26.2965 43.9427 24.2136 43.9328 23.8791 43.7605C23.3295 43.4773 23.3494 42.1705 23.0109 41.8517C22.776 41.6299 21.4697 41.4121 21.1272 41.0576C20.3526 41.2061 19.6198 42.1427 18.8333 41.6497C18.6202 41.515 16.9396 39.8042 16.8818 39.63C16.6031 38.7666 17.5708 38.0934 17.533 37.5033C17.527 37.4043 16.85 35.741 16.7863 35.6658C16.5433 35.3747 15.1953 35.3153 14.9025 34.8658C14.6835 34.5312 14.6676 32.0164 14.8229 31.6303C15.0877 30.9749 16.5593 30.9887 16.8141 30.6897C16.8779 30.6145 17.0013 30.0185 17.0889 29.8244C17.2004 29.573 17.5509 29.0324 17.5867 28.8403C17.6803 28.3473 16.4438 27.4245 16.9914 26.5592C17.1088 26.3731 18.8631 24.6365 18.9985 24.595C19.8468 24.3415 20.6254 25.3197 21.161 25.2682C21.5394 25.2306 22.4932 24.5395 23.0069 24.5237C23.3236 23.9851 23.3474 22.6802 24.0762 22.5178C24.4287 22.4386 26.7883 22.4525 27.0671 22.5713C27.7143 22.8465 27.6306 24.1078 27.9413 24.4742C28.1364 24.7058 29.4546 24.892 29.7573 25.2504C30.3288 25.3949 31.2846 24.1871 32.1269 24.6682C32.2882 24.7613 34.0723 26.6068 34.1181 26.7473C34.367 27.5176 33.4033 28.2978 33.4033 28.7829C33.4033 28.9136 33.8175 29.6106 33.913 29.8244C34.0007 30.0205 34.1241 30.6165 34.1878 30.6897L34.1858 30.6917ZM26.187 24.092C26.1352 24.0465 24.8648 24.0465 24.813 24.092C24.7095 24.1811 24.5681 25.4325 24.1579 25.7672C23.8711 26.0008 22.6744 26.3177 22.2144 26.5077C21.9078 26.6345 21.6489 26.9097 21.2925 26.9869C20.6294 27.1295 19.8468 26.1731 19.3709 26.4503C19.2972 26.4939 18.6541 27.1632 18.6441 27.2146C18.6003 27.4424 19.355 28.3988 19.3231 28.8779C19.3072 29.1116 18.7277 30.0858 18.5804 30.4205C18.3514 30.9452 18.2956 31.7927 17.758 32.0778C17.5449 32.1927 16.3522 32.4778 16.3323 32.557C16.396 32.8501 16.2407 33.5748 16.384 33.7886C16.5095 33.9748 17.7421 34.1312 18.0348 34.45C18.2976 34.7371 18.4071 35.549 18.5804 35.9608C18.7775 36.4301 19.4048 37.2974 19.2813 37.7449C19.1578 38.1924 18.4788 38.8716 18.7198 39.2815C18.7636 39.3547 19.4366 39.9943 19.4884 40.0042C19.7393 40.0517 20.6473 39.2914 21.1551 39.329C21.4558 39.3508 22.6485 40.022 23.0826 40.1923C23.3873 40.3131 23.8154 40.3388 24.0762 40.4913C24.6776 40.8418 24.5561 42.2061 25.05 42.2952C25.2272 42.3269 25.9659 42.3249 26.0974 42.2477C26.3303 42.1091 26.4239 40.8873 26.7963 40.5666C26.9835 40.4042 28.1742 40.0913 28.5526 39.9369C29.0026 39.7527 29.5263 39.2894 30.0022 39.3448C30.4502 39.3963 31.3184 40.1329 31.6231 39.929C31.7127 39.8696 32.338 39.2221 32.3539 39.1567C32.4375 38.832 31.643 37.9231 31.6709 37.5013C31.6888 37.2241 32.2643 36.3153 32.4156 35.9569C32.5889 35.547 32.7263 34.6064 33.0389 34.3708C33.3814 34.1134 34.5881 34.0064 34.6598 33.6322C34.6837 33.5015 34.6856 32.5451 34.6478 32.5016C34.6 32.4461 33.4789 32.2006 33.238 32.0719C32.6645 31.7669 32.6605 30.9808 32.4156 30.4145C32.2543 30.0363 31.7864 29.3235 31.7127 29.0265C31.5454 28.3374 32.5152 27.4542 32.2762 27.0939C32.2185 27.0067 31.5654 26.383 31.4996 26.3672C31.189 26.288 30.3029 27.0424 29.8429 27.0186C29.4725 26.9988 29.1002 26.6384 28.7796 26.5038C28.2061 26.2642 26.874 25.9711 26.6131 25.49C26.4837 25.2504 26.2368 24.1356 26.181 24.088L26.187 24.092Z" fill="white"/>
<path d="M28.7855 8.93424V18.3893C28.7855 18.9021 28.2977 19.1794 27.8397 19.2308C26.8162 19.3457 24.1817 19.3477 23.1602 19.2308C22.9531 19.2071 22.3139 18.9952 22.3139 18.7853V9.08275C22.3139 9.07285 22.1746 8.93424 22.1646 8.93424H18.4808C18.1224 8.93424 17.7361 7.99567 18.1323 7.69667C20.3526 5.44726 22.3458 2.85925 24.5541 0.617763C25.3128 -0.154482 25.6055 -0.231706 26.4 0.56628C28.6302 2.80975 30.6294 5.44132 32.8696 7.69667C33.2658 7.99567 32.8795 8.93424 32.5211 8.93424H28.7875H28.7855ZM30.3785 7.35015L25.5398 2.0078L20.6214 7.35015H23.0607C23.3892 7.35015 23.9069 7.863 23.9069 8.1917V17.6467H27.093V8.38971C27.093 7.96795 27.4713 7.35015 27.9392 7.35015H30.3785Z" fill="white"/>
<path d="M10.7647 26.8544V36.6064C10.7647 36.8143 10.2291 37.1133 10.012 37.145C9.01041 37.2856 6.28438 37.2519 5.23499 37.1569C4.91838 37.1292 4.29313 36.844 4.29313 36.5094V26.8563H0.459966C0.270797 26.8563 -0.195156 26.0366 0.0895929 25.795C2.15253 23.5159 4.1398 21.1002 6.28239 18.8844C6.79215 18.3557 7.33975 17.5419 8.12829 18.1419L14.8926 25.5732C15.2769 25.8465 14.9125 26.8563 14.5979 26.8563H10.7647V26.8544ZM12.3577 25.2703L7.52892 19.9259L2.70013 25.2703H5.13941C5.28079 25.2703 5.88613 25.7217 5.88613 25.8148V35.5669H9.1717V25.9138C9.1717 25.7336 9.72726 25.2703 9.91842 25.2703H12.3577Z" fill="white"/>
<path d="M46.7068 26.8543V36.5073C46.7068 36.844 46.0816 37.1271 45.765 37.1548C44.7156 37.2499 41.9896 37.2835 40.988 37.143C40.7709 37.1133 40.2353 36.8123 40.2353 36.6044V26.8523H36.4021C36.2089 26.8523 35.7629 26.0959 35.976 25.8325C38.1683 23.201 40.6275 20.7456 42.8717 18.1378C43.6602 17.5359 44.2078 18.3517 44.7176 18.8804C46.8582 21.0981 48.8415 23.5158 50.9104 25.791C51.1951 26.0325 50.7292 26.8523 50.54 26.8523H46.7068V26.8543ZM48.2998 25.2702L43.471 19.9259L38.6423 25.2702H41.0815C41.2727 25.2702 41.8283 25.7335 41.8283 25.9137V35.5668H45.1138V25.8147C45.1138 25.7217 45.7192 25.2702 45.8606 25.2702H48.2998Z" fill="white"/>
<path d="M4.96418 38.3528C5.5058 38.2578 5.84431 38.6756 5.89011 39.1746C6.05937 40.9923 5.76068 43.0694 5.88015 44.9149C5.74276 45.7842 4.39468 45.8832 4.28914 44.7268C4.12586 42.9388 4.41658 40.8992 4.2991 39.0835C4.33295 38.7884 4.67943 38.4003 4.96418 38.3508V38.3528Z" fill="white"/>
<path d="M45.7869 38.3548C46.3404 38.2637 46.667 38.7864 46.7108 39.2736C46.8761 41.0596 46.5834 43.1011 46.7009 44.9149C46.5635 45.7842 45.2154 45.8832 45.1098 44.7268C44.9426 42.909 45.2393 40.8339 45.1218 38.9864C45.1298 38.6756 45.5061 38.4003 45.7889 38.3528L45.7869 38.3548Z" fill="white"/>
<path d="M10.5337 44.5446C10.008 45.0218 9.31902 44.6615 9.17764 44.0258C9.36084 42.2497 8.90882 39.9013 9.17764 38.1964C9.31504 37.3212 10.6492 37.2816 10.7667 38.2875C10.9738 40.0636 10.6034 42.218 10.7687 44.0357C10.7527 44.2021 10.6532 44.4357 10.5337 44.5446Z" fill="white"/>
<path d="M40.4662 44.5446C40.3468 44.4357 40.2472 44.2021 40.2313 44.0357C40.3965 42.218 40.0262 40.0636 40.2332 38.2875C40.3507 37.2816 41.6849 37.3212 41.8223 38.1964C42.0911 39.9032 41.6391 42.2497 41.8223 44.0258C41.6809 44.6615 40.9899 45.0218 40.4662 44.5446Z" fill="white"/>
<path d="M7.45521 39.7409C8.08644 39.6598 8.32738 40.2281 8.37716 40.7587C8.48867 41.9428 8.51854 44.9585 8.36521 46.1011C8.21189 47.2436 6.89169 47.1723 6.77619 46.3129C6.98129 44.4952 6.51534 42.121 6.78814 40.3726C6.8419 40.0221 7.10475 39.7865 7.4572 39.7409H7.45521Z" fill="white"/>
<path d="M43.2958 39.7389C43.7936 39.6498 44.164 39.9844 44.2197 40.4636C44.4328 42.2972 44.0585 44.5268 44.2158 46.4039C43.6283 47.4217 42.7203 47.0495 42.6208 45.9149C42.5152 44.7268 42.4734 41.7071 42.6347 40.5725C42.6845 40.226 42.9214 39.8042 43.2958 39.7369V39.7389Z" fill="white"/>
<path d="M24.58 27.7691C30.3586 27.0385 33.3057 33.9629 28.8871 37.4974C26.0157 39.7944 21.6091 38.4934 20.3466 35.0956C19.1957 31.9987 21.169 28.1988 24.58 27.7691ZM24.7792 29.3532C20.1077 29.9849 20.7528 37.6559 26.0376 37.04C30.9381 36.4678 30.3606 28.5988 24.7792 29.3532Z" fill="white"/>
</g>
<defs>
<clipPath id="clip0_28_769">
<rect width="51" height="47" fill="white"/>
</clipPath>
</defs>
</svg>
