<svg width="13" height="14" viewBox="0 0 13 14" fill="none" xmlns="http://www.w3.org/2000/svg">
<path d="M6.38474 13.8798C4.65078 13.8798 2.91682 13.879 1.18286 13.8805C1.00595 13.8805 0.836852 13.8591 0.689622 13.7541C0.434605 13.5719 0.296747 13.3327 0.315102 13.0089C0.334238 12.6679 0.371339 12.3296 0.444759 11.996C0.546687 11.5345 0.713444 11.0975 0.946982 10.6851C1.35392 9.96524 1.91316 9.39092 2.61533 8.95861C3.1242 8.64531 3.67914 8.44399 4.26767 8.3363C4.58244 8.27856 4.89955 8.24735 5.21979 8.24735C5.96375 8.24657 6.70732 8.25008 7.45129 8.24617C8.14604 8.24266 8.81932 8.35347 9.46643 8.60903C9.91905 8.78772 10.3291 9.03782 10.7068 9.34371C11.1867 9.73231 11.5687 10.2017 11.8662 10.7409C12.1677 11.2867 12.3489 11.8712 12.4231 12.49C12.4489 12.7054 12.4735 12.9211 12.4649 13.1381C12.4497 13.5208 12.1025 13.8618 11.7186 13.8766C11.6651 13.8786 11.6112 13.8798 11.5577 13.8798C9.83353 13.8798 8.10933 13.8798 6.38513 13.8798H6.38474Z" fill="white"/>
<path d="M6.39138 5.59935e-05C8.31163 -0.0104784 9.86204 1.57671 9.86321 3.46705C9.86438 5.33594 8.33857 6.93795 6.39451 6.94029C4.45317 6.94264 2.91799 5.3414 2.91956 3.46627C2.92112 1.57827 4.46958 -0.0108686 6.39177 5.59935e-05H6.39138Z" fill="white"/>
</svg>
