<svg width="14" height="14" viewBox="0 0 14 14" fill="none" xmlns="http://www.w3.org/2000/svg">
<path d="M11.18 13.1517C9.91016 13.1121 8.7112 12.8889 7.55181 12.4679C6.55487 12.1058 5.63462 11.5983 4.7758 10.9755C3.08002 9.74557 1.81343 8.16837 0.956264 6.26369C0.514692 5.28252 0.240926 4.25068 0.104455 3.18301C0.0417852 2.69284 0.00756438 2.20102 0.000142999 1.70713C-0.00769068 1.19183 0.306893 0.762211 0.804951 0.625045C1.51699 0.429387 2.22862 0.232494 2.94272 0.045898C3.33605 -0.0566678 3.70218 0.00717838 4.0081 0.293044C4.13138 0.407968 4.20353 0.560375 4.26744 0.714017C4.58985 1.48676 4.91227 2.25992 5.23304 3.0339C5.43548 3.52243 5.32457 3.98088 4.9164 4.31988C4.53955 4.63294 4.15941 4.94146 3.77721 5.24792C3.71413 5.29817 3.70053 5.33401 3.73805 5.41021C4.25548 6.461 4.93536 7.38944 5.82387 8.15766C6.41675 8.67049 7.06818 9.09723 7.77528 9.43829C7.84372 9.47124 7.86969 9.44241 7.90639 9.39751C8.21273 9.02102 8.52195 8.64701 8.82788 8.27011C9.16679 7.85202 9.63557 7.7268 10.1316 7.93193C10.9178 8.25693 11.6979 8.59717 12.4891 8.90857C13.0849 9.14295 13.2584 9.7085 13.124 10.2156C12.934 10.9323 12.7373 11.6474 12.5398 12.3624C12.4033 12.8567 11.9684 13.1756 11.4542 13.164C11.3503 13.1616 11.2468 13.155 11.1796 13.1517H11.18Z" fill="white"/>
</svg>
